<?xml version="1.0" standalone="no"?>
<!DOCTYPE svg PUBLIC "-//W3C//DTD SVG 20010904//EN" "http://www.w3.org/TR/2001/REC-SVG-20010904/DTD/svg10.dtd">
<!-- Created using Karbon, part of Calligra: http://www.calligra.org/karbon -->
<svg xmlns="http://www.w3.org/2000/svg" xmlns:xlink="http://www.w3.org/1999/xlink" width="960pt" height="960pt">
<defs/>
<g id="layer0">
  <rect id="rect3208" transform="translate(0, 1050)" fill="#705330" width="120.00000000000pt" height="120.00000000000pt"/>
  <rect id="rect3978" transform="translate(150, 1050)" fill="#f6f7fc" width="120.00000000000pt" height="120.00000000000pt"/>
  <rect id="rect3980" transform="translate(300, 1050)" fill="#705330" width="120.00000000000pt" height="120.00000000000pt"/>
  <rect id="rect3982" transform="translate(450, 1050)" fill="#f6f7fc" width="120.00000000000pt" height="120.00000000000pt"/>
  <rect id="rect3984" transform="translate(600, 1050)" fill="#705330" width="120.00000000000pt" height="120.00000000000pt"/>
  <rect id="rect3986" transform="translate(750, 1052.86)" fill="#f6f7fc" width="120.00000000000pt" height="120.00000000000pt"/>
  <rect id="rect3988" transform="translate(900, 1050)" fill="#705330" width="120.00000000000pt" height="120.00000000000pt"/>
  <rect id="rect3990" transform="translate(1050, 1052.86)" fill="#f6f7fc" width="120.00000000000pt" height="120.00000000000pt"/>
  <rect id="rect4004" transform="matrix(-1 0 0 1 1200 900)" fill="#705330" width="120.00000000000pt" height="120.00000000000pt"/>
  <rect id="rect4006" transform="matrix(-1 0 0 1 1050 902.861)" fill="#f6f7fc" width="120.00000000000pt" height="120.00000000000pt"/>
  <rect id="rect4008" transform="matrix(-1 0 0 1 900 900)" fill="#705330" width="120.00000000000pt" height="120.00000000000pt"/>
  <rect id="rect4010" transform="matrix(-1 0 0 1 750 902.861)" fill="#f6f7fc" width="120.00000000000pt" height="120.00000000000pt"/>
  <rect id="rect4012" transform="matrix(-1 0 0 1 600 900)" fill="#705330" width="120.00000000000pt" height="120.00000000000pt"/>
  <rect id="rect4014" transform="matrix(-1 0 0 1 450 900)" fill="#f6f7fc" width="120.00000000000pt" height="120.00000000000pt"/>
  <rect id="rect4016" transform="matrix(-1 0 0 1 300 900)" fill="#705330" width="120.00000000000pt" height="120.00000000000pt"/>
  <rect id="rect4018" transform="matrix(-1 0 0 1 150 900)" fill="#f6f7fc" width="120.00000000000pt" height="120.00000000000pt"/>
  <rect id="rect4022" transform="translate(0, 750)" fill="#705330" width="120.00000000000pt" height="120.00000000000pt"/>
  <rect id="rect4024" transform="translate(150, 750)" fill="#f6f7fc" width="120.00000000000pt" height="120.00000000000pt"/>
  <rect id="rect4026" transform="translate(300, 750)" fill="#705330" width="120.00000000000pt" height="120.00000000000pt"/>
  <rect id="rect4028" transform="translate(450, 752.861)" fill="#f6f7fc" width="120.00000000000pt" height="120.00000000000pt"/>
  <rect id="rect4030" transform="translate(600, 750)" fill="#705330" width="120.00000000000pt" height="120.00000000000pt"/>
  <rect id="rect4032" transform="translate(750, 752.861)" fill="#f6f7fc" width="120.00000000000pt" height="120.00000000000pt"/>
  <rect id="rect4034" transform="translate(900, 750)" fill="#705330" width="120.00000000000pt" height="120.00000000000pt"/>
  <rect id="rect4036" transform="translate(1050, 752.861)" fill="#f6f7fc" width="120.00000000000pt" height="120.00000000000pt"/>
  <rect id="rect4040" transform="matrix(-1 0 0 1 1200 600)" fill="#705330" width="120.00000000000pt" height="120.00000000000pt"/>
  <rect id="rect4042" transform="matrix(-1 0 0 1 1050 602.861)" fill="#f6f7fc" width="120.00000000000pt" height="120.00000000000pt"/>
  <rect id="rect4044" transform="matrix(-1 0 0 1 900 600)" fill="#705330" width="120.00000000000pt" height="120.00000000000pt"/>
  <rect id="rect4046" transform="matrix(-1 0 0 1 750 602.861)" fill="#f6f7fc" width="120.00000000000pt" height="120.00000000000pt"/>
  <rect id="rect4048" transform="matrix(-1 0 0 1 600 600)" fill="#705330" width="120.00000000000pt" height="120.00000000000pt"/>
  <rect id="rect4050" transform="matrix(-1 0 0 1 450 600)" fill="#f6f7fc" width="120.00000000000pt" height="120.00000000000pt"/>
  <rect id="rect4052" transform="matrix(-1 0 0 1 300 600)" fill="#705330" width="120.00000000000pt" height="120.00000000000pt"/>
  <rect id="rect4054" transform="matrix(-1 0 0 1 150 600)" fill="#f6f7fc" width="120.00000000000pt" height="120.00000000000pt"/>
  <rect id="rect4058" transform="translate(0, 450)" fill="#705330" width="120.00000000000pt" height="120.00000000000pt"/>
  <rect id="rect4060" transform="translate(150, 450)" fill="#f6f7fc" width="120.00000000000pt" height="120.00000000000pt"/>
  <rect id="rect4062" transform="translate(300, 450)" fill="#705330" width="120.00000000000pt" height="120.00000000000pt"/>
  <rect id="rect4064" transform="translate(450, 452.861)" fill="#f6f7fc" width="120.00000000000pt" height="120.00000000000pt"/>
  <rect id="rect4066" transform="translate(600, 450)" fill="#705330" width="120.00000000000pt" height="120.00000000000pt"/>
  <rect id="rect4068" transform="translate(750, 452.861)" fill="#f6f7fc" width="120.00000000000pt" height="120.00000000000pt"/>
  <rect id="rect4070" transform="translate(900, 450)" fill="#705330" width="120.00000000000pt" height="120.00000000000pt"/>
  <rect id="rect4072" transform="translate(1050, 452.861)" fill="#f6f7fc" width="120.00000000000pt" height="120.00000000000pt"/>
  <rect id="rect4076" transform="matrix(-1 0 0 1 1200 300)" fill="#705330" width="120.00000000000pt" height="120.00000000000pt"/>
  <rect id="rect4078" transform="matrix(-1 0 0 1 1050 302.861)" fill="#f6f7fc" width="120.00000000000pt" height="120.00000000000pt"/>
  <rect id="rect4080" transform="matrix(-1 0 0 1 900 300)" fill="#705330" width="120.00000000000pt" height="120.00000000000pt"/>
  <rect id="rect4082" transform="matrix(-1 0 0 1 750 302.861)" fill="#f6f7fc" width="120.00000000000pt" height="120.00000000000pt"/>
  <rect id="rect4084" transform="matrix(-1 0 0 1 600 300)" fill="#705330" width="120.00000000000pt" height="120.00000000000pt"/>
  <rect id="rect4086" transform="matrix(-1 0 0 1 450 300)" fill="#f6f7fc" width="120.00000000000pt" height="120.00000000000pt"/>
  <rect id="rect4088" transform="matrix(-1 0 0 1 300 300)" fill="#705330" width="120.00000000000pt" height="120.00000000000pt"/>
  <rect id="rect4090" transform="matrix(-1 0 0 1 150 300)" fill="#f6f7fc" width="120.00000000000pt" height="120.00000000000pt"/>
  <rect id="rect4094" transform="translate(0, 150)" fill="#705330" width="120.00000000000pt" height="120.00000000000pt"/>
  <rect id="rect4096" transform="translate(150, 150)" fill="#f6f7fc" width="120.00000000000pt" height="120.00000000000pt"/>
  <rect id="rect4098" transform="translate(300, 150)" fill="#705330" width="120.00000000000pt" height="120.00000000000pt"/>
  <rect id="rect4100" transform="translate(450, 152.861)" fill="#f6f7fc" width="120.00000000000pt" height="120.00000000000pt"/>
  <rect id="rect4102" transform="translate(600, 150)" fill="#705330" width="120.00000000000pt" height="120.00000000000pt"/>
  <rect id="rect4104" transform="translate(750, 152.861)" fill="#f6f7fc" width="120.00000000000pt" height="120.00000000000pt"/>
  <rect id="rect4106" transform="translate(900, 150)" fill="#705330" width="120.00000000000pt" height="120.00000000000pt"/>
  <rect id="rect4108" transform="translate(1050, 152.861)" fill="#f6f7fc" width="120.00000000000pt" height="120.00000000000pt"/>
  <rect id="rect4112" transform="matrix(-1 0 0 1 1200 0)" fill="#705330" width="120.00000000000pt" height="120.00000000000pt"/>
  <rect id="rect4114" transform="matrix(-1 0 0 1 1050 2.86055)" fill="#f6f7fc" width="120.00000000000pt" height="120.00000000000pt"/>
  <rect id="rect4116" transform="matrix(-1 0 0 1 900 0)" fill="#705330" width="120.00000000000pt" height="120.00000000000pt"/>
  <rect id="rect4118" transform="matrix(-1 0 0 1 750 2.86055)" fill="#f6f7fc" width="120.00000000000pt" height="120.00000000000pt"/>
  <rect id="rect4120" transform="matrix(-1 0 0 1 600 0)" fill="#705330" width="120.00000000000pt" height="120.00000000000pt"/>
  <rect id="rect4122" transform="matrix(-1 0 0 1 450 0)" fill="#f6f7fc" width="120.00000000000pt" height="120.00000000000pt"/>
  <rect id="rect4124" transform="matrix(-1 0 0 1 300 0)" fill="#705330" stroke="#000000" stroke-width="0.08503951740" stroke-linecap="butt" stroke-linejoin="miter" stroke-miterlimit="1.98425540600" width="120.00000000000pt" height="120.00000000000pt"/>
  <rect id="rect4126" transform="matrix(-1 0 0 1 150 0)" fill="#f6f7fc" width="120.00000000000pt" height="120.00000000000pt"/>
 </g>
</svg>
